<svg version="1.1" xmlns="http://www.w3.org/2000/svg" xmlns:xlink="http://www.w3.org/1999/xlink" width="2313" height="2481"><defs/><g><g/><g/><g/><g/><g/><g/><g/><g/><g/><g/><g/><g/><g/><g/><g/><g/><g/><g/><g/><g/><g/><g/><g/><g/><g/><g/><g/><g/><g/><g/><g/><g/><g/><g/><g/><g/><g/><g/><g/><g/><g/><g/><g/><g/><g/><g/><g/><g/><g/><g/><g><rect fill="white" stroke="none" x="0" y="0" width="2313" height="2481"/></g><g><text fill="black" stroke="none" font-family="sans-serif" font-size="16.5pt" font-style="normal" font-weight="normal" text-decoration="normal" x="988.8682172385645" y="22.6179738" text-anchor="start" dominant-baseline="alphabetic" xml:space="preserve">Update map-nappia painetaan</text></g><g/><g><path fill="none" stroke="black" paint-order="fill stroke markers" d=" M 31.30799228354419 88.511670804 L 31.30799228354419 2481.493298844002" stroke-miterlimit="10" stroke-width="1.2565541" stroke-dasharray="11.598960923076923,5.0262164"/><path fill="none" stroke="black" paint-order="fill stroke markers" d=" M 203.17015475766527 88.511670804 L 203.17015475766527 2481.493298844002" stroke-miterlimit="10" stroke-width="1.2565541" stroke-dasharray="11.598960923076923,5.0262164"/><path fill="none" stroke="black" paint-order="fill stroke markers" d=" M 323.2278040204934 88.511670804 L 323.2278040204934 2481.493298844002" stroke-miterlimit="10" stroke-width="1.2565541" stroke-dasharray="11.598960923076923,5.0262164"/><path fill="none" stroke="black" paint-order="fill stroke markers" d=" M 482.9687876339075 88.511670804 L 482.9687876339075 2481.493298844002" stroke-miterlimit="10" stroke-width="1.2565541" stroke-dasharray="11.598960923076923,5.0262164"/><path fill="none" stroke="black" paint-order="fill stroke markers" d=" M 646.4514399484934 88.511670804 L 646.4514399484934 2481.493298844002" stroke-miterlimit="10" stroke-width="1.2565541" stroke-dasharray="11.598960923076923,5.0262164"/><path fill="none" stroke="black" paint-order="fill stroke markers" d=" M 787.767424324847 88.511670804 L 787.767424324847 2481.493298844002" stroke-miterlimit="10" stroke-width="1.2565541" stroke-dasharray="11.598960923076923,5.0262164"/><path fill="none" stroke="black" paint-order="fill stroke markers" d=" M 932.4250758764935 88.511670804 L 932.4250758764935 2481.493298844002" stroke-miterlimit="10" stroke-width="1.2565541" stroke-dasharray="11.598960923076923,5.0262164"/><path fill="none" stroke="black" paint-order="fill stroke markers" d=" M 1107.994818102392 88.511670804 L 1107.994818102392 2481.493298844002" stroke-miterlimit="10" stroke-width="1.2565541" stroke-dasharray="11.598960923076923,5.0262164"/><path fill="none" stroke="black" paint-order="fill stroke markers" d=" M 1706.428332902392 88.511670804 L 1706.428332902392 2481.493298844002" stroke-miterlimit="10" stroke-width="1.2565541" stroke-dasharray="11.598960923076923,5.0262164"/><path fill="none" stroke="black" paint-order="fill stroke markers" d=" M 1836.2276489590433 88.511670804 L 1836.2276489590433 2481.493298844002" stroke-miterlimit="10" stroke-width="1.2565541" stroke-dasharray="11.598960923076923,5.0262164"/><path fill="none" stroke="black" paint-order="fill stroke markers" d=" M 1975.938840676616 88.511670804 L 1975.938840676616 2481.493298844002" stroke-miterlimit="10" stroke-width="1.2565541" stroke-dasharray="11.598960923076923,5.0262164"/><path fill="none" stroke="black" paint-order="fill stroke markers" d=" M 2055.521491465323 88.511670804 L 2055.521491465323 2481.493298844002" stroke-miterlimit="10" stroke-width="1.2565541" stroke-dasharray="11.598960923076923,5.0262164"/><path fill="none" stroke="black" paint-order="fill stroke markers" d=" M 2140.3874750787368 88.511670804 L 2140.3874750787368 2481.493298844002" stroke-miterlimit="10" stroke-width="1.2565541" stroke-dasharray="11.598960923076923,5.0262164"/><path fill="none" stroke="black" paint-order="fill stroke markers" d=" M 2249.428457929211 88.511670804 L 2249.428457929211 2481.493298844002" stroke-miterlimit="10" stroke-width="1.2565541" stroke-dasharray="11.598960923076923,5.0262164"/></g><g><path fill="none" stroke="none"/><g><path fill="white" stroke="black" paint-order="fill stroke markers" d=" M 7.5393246000000005 47.799317964000004 L 55.07665996708838 47.799317964000004 L 55.07665996708838 88.511670804 L 7.5393246000000005 88.511670804 L 7.5393246000000005 47.799317964000004 Z" stroke-miterlimit="10" stroke-width="2.4125838720000004" stroke-dasharray=""/></g><g><g/><text fill="black" stroke="none" font-family="sans-serif" font-size="11pt" font-style="normal" font-weight="normal" text-decoration="normal" x="23.899658982000002" y="73.43302160400002" text-anchor="start" dominant-baseline="alphabetic" xml:space="preserve">Ui</text></g><path fill="none" stroke="none"/><g><path fill="white" stroke="black" paint-order="fill stroke markers" d=" M 169.29315396331177 47.799317964000004 L 237.0471555520188 47.799317964000004 L 237.0471555520188 88.511670804 L 169.29315396331177 88.511670804 L 169.29315396331177 47.799317964000004 Z" stroke-miterlimit="10" stroke-width="2.4125838720000004" stroke-dasharray=""/></g><g><g/><text fill="black" stroke="none" font-family="sans-serif" font-size="11pt" font-style="normal" font-weight="normal" text-decoration="normal" x="185.65348834531176" y="73.43302160400002" text-anchor="start" dominant-baseline="alphabetic" xml:space="preserve">seed</text></g><path fill="none" stroke="none"/><g><path fill="white" stroke="black" paint-order="fill stroke markers" d=" M 252.12580475201878 47.799317964000004 L 394.32980328896804 47.799317964000004 L 394.32980328896804 88.511670804 L 252.12580475201878 88.511670804 L 252.12580475201878 47.799317964000004 Z" stroke-miterlimit="10" stroke-width="2.4125838720000004" stroke-dasharray=""/></g><g><g/><text fill="black" stroke="none" font-family="sans-serif" font-size="11pt" font-style="normal" font-weight="normal" text-decoration="normal" x="268.4861391340188" y="73.43302160400002" text-anchor="start" dominant-baseline="alphabetic" xml:space="preserve">mountainScale</text></g><path fill="none" stroke="none"/><g><path fill="white" stroke="black" paint-order="fill stroke markers" d=" M 409.408452488968 47.799317964000004 L 556.529122778847 47.799317964000004 L 556.529122778847 88.511670804 L 409.408452488968 88.511670804 L 409.408452488968 47.799317964000004 Z" stroke-miterlimit="10" stroke-width="2.4125838720000004" stroke-dasharray=""/></g><g><g/><text fill="black" stroke="none" font-family="sans-serif" font-size="11pt" font-style="normal" font-weight="normal" text-decoration="normal" x="425.76878687096803" y="73.43302160400002" text-anchor="start" dominant-baseline="alphabetic" xml:space="preserve">mountainCutoff</text></g><path fill="none" stroke="none"/><g><path fill="white" stroke="black" paint-order="fill stroke markers" d=" M 571.6077719788469 47.799317964000004 L 721.2951079181399 47.799317964000004 L 721.2951079181399 88.511670804 L 571.6077719788469 88.511670804 L 571.6077719788469 47.799317964000004 Z" stroke-miterlimit="10" stroke-width="2.4125838720000004" stroke-dasharray=""/></g><g><g/><text fill="black" stroke="none" font-family="sans-serif" font-size="11pt" font-style="normal" font-weight="normal" text-decoration="normal" x="587.968106360847" y="73.43302160400002" text-anchor="start" dominant-baseline="alphabetic" xml:space="preserve">largeValueScale</text></g><path fill="none" stroke="none"/><g><path fill="white" stroke="black" paint-order="fill stroke markers" d=" M 736.3737571181399 47.799317964000004 L 839.161091531554 47.799317964000004 L 839.161091531554 88.511670804 L 736.3737571181399 88.511670804 L 736.3737571181399 47.799317964000004 Z" stroke-miterlimit="10" stroke-width="2.4125838720000004" stroke-dasharray=""/></g><g><g/><text fill="black" stroke="none" font-family="sans-serif" font-size="11pt" font-style="normal" font-weight="normal" text-decoration="normal" x="752.7340915001399" y="73.43302160400002" text-anchor="start" dominant-baseline="alphabetic" xml:space="preserve">seaCutoff</text></g><path fill="none" stroke="none"/><g><path fill="white" stroke="black" paint-order="fill stroke markers" d=" M 854.239740731554 47.799317964000004 L 1010.6104110214329 47.799317964000004 L 1010.6104110214329 88.511670804 L 854.239740731554 88.511670804 L 854.239740731554 47.799317964000004 Z" stroke-miterlimit="10" stroke-width="2.4125838720000004" stroke-dasharray=""/></g><g><g/><text fill="black" stroke="none" font-family="sans-serif" font-size="11pt" font-style="normal" font-weight="normal" text-decoration="normal" x="870.600075113554" y="73.43302160400002" text-anchor="start" dominant-baseline="alphabetic" xml:space="preserve">erosionIterations</text></g><path fill="none" stroke="none"/><g><path fill="white" stroke="black" paint-order="fill stroke markers" d=" M 1060.3178161636292 47.799317964000004 L 1155.6718200411547 47.799317964000004 L 1155.6718200411547 88.511670804 L 1060.3178161636292 88.511670804 L 1060.3178161636292 47.799317964000004 Z" stroke-miterlimit="10" stroke-width="2.4125838720000004" stroke-dasharray=""/></g><g><g/><text fill="black" stroke="none" font-family="sans-serif" font-size="11pt" font-style="normal" font-weight="normal" text-decoration="normal" x="1076.6781505456293" y="73.43302160400002" text-anchor="start" dominant-baseline="alphabetic" xml:space="preserve">MapTask</text></g><path fill="none" stroke="none"/><g><path fill="white" stroke="black" paint-order="fill stroke markers" d=" M 1667.5263324895081 47.799317964000004 L 1745.3303333152758 47.799317964000004 L 1745.3303333152758 88.511670804 L 1667.5263324895081 88.511670804 L 1667.5263324895081 47.799317964000004 Z" stroke-miterlimit="10" stroke-width="2.4125838720000004" stroke-dasharray=""/></g><g><g/><text fill="black" stroke="none" font-family="sans-serif" font-size="11pt" font-style="normal" font-weight="normal" text-decoration="normal" x="1683.8866668715082" y="73.43302160400002" text-anchor="start" dominant-baseline="alphabetic" xml:space="preserve">status</text></g><path fill="none" stroke="none"/><g><path fill="white" stroke="black" paint-order="fill stroke markers" d=" M 1760.4089825152757 47.799317964000004 L 1912.046315402811 47.799317964000004 L 1912.046315402811 88.511670804 L 1760.4089825152757 88.511670804 L 1760.4089825152757 47.799317964000004 Z" stroke-miterlimit="10" stroke-width="2.4125838720000004" stroke-dasharray=""/></g><g><g/><text fill="black" stroke="none" font-family="sans-serif" font-size="11pt" font-style="normal" font-weight="normal" text-decoration="normal" x="1776.7693168972758" y="73.43302160400002" text-anchor="start" dominant-baseline="alphabetic" xml:space="preserve">ExecutorService</text></g><path fill="none" stroke="none"/><g><path fill="white" stroke="black" paint-order="fill stroke markers" d=" M 1944.0951727069696 47.799317964000004 L 2007.7825086462626 47.799317964000004 L 2007.7825086462626 88.511670804 L 1944.0951727069696 88.511670804 L 1944.0951727069696 47.799317964000004 Z" stroke-miterlimit="10" stroke-width="2.4125838720000004" stroke-dasharray=""/></g><g><g/><text fill="black" stroke="none" font-family="sans-serif" font-size="11pt" font-style="normal" font-weight="normal" text-decoration="normal" x="1960.4555070889696" y="73.43302160400002" text-anchor="start" dominant-baseline="alphabetic" xml:space="preserve">Map</text></g><path fill="none" stroke="none"/><g><path fill="white" stroke="black" paint-order="fill stroke markers" d=" M 2022.8611578462624 47.799317964000004 L 2088.1818250843835 47.799317964000004 L 2088.1818250843835 88.511670804 L 2022.8611578462624 88.511670804 L 2022.8611578462624 47.799317964000004 Z" stroke-miterlimit="10" stroke-width="2.4125838720000004" stroke-dasharray=""/></g><g><g/><text fill="black" stroke="none" font-family="sans-serif" font-size="11pt" font-style="normal" font-weight="normal" text-decoration="normal" x="2039.2214922282624" y="73.43302160400002" text-anchor="start" dominant-baseline="alphabetic" xml:space="preserve">map</text></g><path fill="none" stroke="none"/><g><path fill="white" stroke="black" paint-order="fill stroke markers" d=" M 2103.2604742843832 47.799317964000004 L 2177.5144758730903 47.799317964000004 L 2177.5144758730903 88.511670804 L 2103.2604742843832 88.511670804 L 2103.2604742843832 47.799317964000004 Z" stroke-miterlimit="10" stroke-width="2.4125838720000004" stroke-dasharray=""/></g><g><g/><text fill="black" stroke="none" font-family="sans-serif" font-size="11pt" font-style="normal" font-weight="normal" text-decoration="normal" x="2119.6208086663833" y="73.43302160400002" text-anchor="start" dominant-baseline="alphabetic" xml:space="preserve">result</text></g><path fill="none" stroke="none"/><g><path fill="white" stroke="black" paint-order="fill stroke markers" d=" M 2192.59312507309 47.799317964000004 L 2306.2637907853323 47.799317964000004 L 2306.2637907853323 88.511670804 L 2192.59312507309 88.511670804 L 2192.59312507309 47.799317964000004 Z" stroke-miterlimit="10" stroke-width="2.4125838720000004" stroke-dasharray=""/></g><g><g/><text fill="black" stroke="none" font-family="sans-serif" font-size="11pt" font-style="normal" font-weight="normal" text-decoration="normal" x="2208.95345945509" y="73.43302160400002" text-anchor="start" dominant-baseline="alphabetic" xml:space="preserve">exportItem</text></g></g><g><path fill="white" stroke="black" paint-order="fill stroke markers" d=" M 23.76866768354419 96.050995404 L 38.847316883544195 96.050995404 L 38.847316883544195 979.6598385239998 L 23.76866768354419 979.6598385239998 L 23.76866768354419 96.050995404" stroke-miterlimit="10" stroke-width="1.2565541" stroke-dasharray=""/><path fill="white" stroke="black" paint-order="fill stroke markers" d=" M 31.307992283544195 157.87345712400003 L 46.386641483544196 157.87345712400003 L 46.386641483544196 706.736288004 L 31.307992283544195 706.736288004 L 31.307992283544195 157.87345712400003" stroke-miterlimit="10" stroke-width="1.2565541" stroke-dasharray=""/><path fill="white" stroke="black" paint-order="fill stroke markers" d=" M 195.6308301576653 200.09367488400002 L 210.70947935766526 200.09367488400002 L 210.70947935766526 242.31389264400002 L 195.6308301576653 242.31389264400002 L 195.6308301576653 200.09367488400002" stroke-miterlimit="10" stroke-width="1.2565541" stroke-dasharray=""/><path fill="white" stroke="black" paint-order="fill stroke markers" d=" M 315.6884794204934 284.53411040400005 L 330.7671286204934 284.53411040400005 L 330.7671286204934 326.75432816400007 L 315.6884794204934 326.75432816400007 L 315.6884794204934 284.53411040400005" stroke-miterlimit="10" stroke-width="1.2565541" stroke-dasharray=""/><path fill="white" stroke="black" paint-order="fill stroke markers" d=" M 475.4294630339075 368.9745459240001 L 490.50811223390747 368.9745459240001 L 490.50811223390747 411.1947636840001 L 475.4294630339075 411.1947636840001 L 475.4294630339075 368.9745459240001" stroke-miterlimit="10" stroke-width="1.2565541" stroke-dasharray=""/><path fill="white" stroke="black" paint-order="fill stroke markers" d=" M 638.9121153484934 453.41498144400015 L 653.9907645484934 453.41498144400015 L 653.9907645484934 495.6351992040002 L 638.9121153484934 495.6351992040002 L 638.9121153484934 453.41498144400015" stroke-miterlimit="10" stroke-width="1.2565541" stroke-dasharray=""/><path fill="white" stroke="black" paint-order="fill stroke markers" d=" M 780.228099724847 537.8554169640001 L 795.3067489248469 537.8554169640001 L 795.3067489248469 580.0756347240001 L 780.228099724847 580.0756347240001 L 780.228099724847 537.8554169640001" stroke-miterlimit="10" stroke-width="1.2565541" stroke-dasharray=""/><path fill="white" stroke="black" paint-order="fill stroke markers" d=" M 924.8857512764935 622.2958524840001 L 939.9644004764934 622.2958524840001 L 939.9644004764934 664.516070244 L 924.8857512764935 664.516070244 L 924.8857512764935 622.2958524840001" stroke-miterlimit="10" stroke-width="1.2565541" stroke-dasharray=""/><path fill="white" stroke="black" paint-order="fill stroke markers" d=" M 1828.6883243590432 1036.958705484 L 1843.7669735590434 1036.958705484 L 1843.7669735590434 2118.0978531240007 L 1828.6883243590432 2118.0978531240007 L 1828.6883243590432 1036.958705484" stroke-miterlimit="10" stroke-width="1.2565541" stroke-dasharray=""/><path fill="white" stroke="black" paint-order="fill stroke markers" d=" M 1100.4554935023918 1079.1789232439999 L 1115.534142702392 1079.1789232439999 L 1115.534142702392 2118.0978531240007 L 1100.4554935023918 2118.0978531240007 L 1100.4554935023918 1079.1789232439999" stroke-miterlimit="10" stroke-width="1.2565541" stroke-dasharray=""/><path fill="white" stroke="black" paint-order="fill stroke markers" d=" M 23.76866768354419 2175.3967200840007 L 38.847316883544195 2175.3967200840007 L 38.847316883544195 2466.4146496440017 L 23.76866768354419 2466.4146496440017 L 23.76866768354419 2175.3967200840007" stroke-miterlimit="10" stroke-width="1.2565541" stroke-dasharray=""/><path fill="white" stroke="black" paint-order="fill stroke markers" d=" M 1100.4554935023918 2217.616937844001 L 1115.534142702392 2217.616937844001 L 1115.534142702392 2259.837155604001 L 1100.4554935023918 2259.837155604001 L 1100.4554935023918 2217.616937844001" stroke-miterlimit="10" stroke-width="1.2565541" stroke-dasharray=""/><g><g><rect fill="white" stroke="none" x="64.2297097035442" y="118.66896920400002" width="76.40692605882812" height="19.602243960000003"/></g><text fill="black" stroke="none" font-family="sans-serif" font-size="11pt" font-style="normal" font-weight="normal" text-decoration="normal" x="66.4915070835442" y="132.239753484" text-anchor="start" dominant-baseline="alphabetic" xml:space="preserve">readState</text></g><g><path fill="none" stroke="black" paint-order="fill stroke markers" d=" M 38.847316883544195 138.27121316400002 L 106.7012382835442 138.27121316400002 L 106.7012382835442 157.87345712400003 L 48.899749683544194 157.87345712400003" stroke-miterlimit="10" stroke-width="1.2565541" stroke-dasharray=""/><g transform="translate(46.386641483544196,157.87345712400003) translate(-46.386641483544196,-157.87345712400003)"><path fill="black" stroke="none" paint-order="stroke fill markers" d=" M 58.9521824835442 151.59068662400003 L 46.386641483544196 157.87345712400003 L 58.9521824835442 164.15622762400002 Z"/></g></g><g><g><rect fill="white" stroke="none" x="91.86360523442798" y="180.491430924" width="58.29026117235352" height="19.602243960000003"/></g><text fill="black" stroke="none" font-family="sans-serif" font-size="11pt" font-style="normal" font-weight="normal" text-decoration="normal" x="94.12540261442798" y="194.062215204" text-anchor="start" dominant-baseline="alphabetic" xml:space="preserve">getText</text></g><g><path fill="none" stroke="black" paint-order="fill stroke markers" d=" M 46.386641483544196 200.09367488400002 L 193.11772195766528 200.09367488400002" stroke-miterlimit="10" stroke-width="1.2565541" stroke-dasharray=""/><g transform="translate(195.6308301576653,200.09367488400002) translate(-195.6308301576653,-200.09367488400002)"><path fill="black" stroke="none" paint-order="stroke fill markers" d=" M 183.0652891576653 193.81090438400003 L 195.6308301576653 200.09367488400002 L 183.0652891576653 206.37644538400002 Z"/></g></g><g><g><rect fill="white" stroke="none" x="96.84693882207446" y="222.711648684" width="48.32359399706055" height="19.602243960000003"/></g><text fill="black" stroke="none" font-family="sans-serif" font-size="11pt" font-style="normal" font-weight="normal" text-decoration="normal" x="99.10873620207447" y="236.282432964" text-anchor="start" dominant-baseline="alphabetic" xml:space="preserve">String</text></g><g><path fill="none" stroke="black" paint-order="fill stroke markers" d=" M 195.6308301576653 242.31389264400002 L 48.899749683544194 242.31389264400002" stroke-miterlimit="10" stroke-width="1.2565541" stroke-dasharray="6.03145968"/><g transform="translate(46.386641483544196,242.31389264400002) translate(-46.386641483544196,-242.31389264400002)"><path fill="black" stroke="none" paint-order="stroke fill markers" d=" M 58.9521824835442 236.03112214400002 L 46.386641483544196 242.31389264400002 L 58.9521824835442 248.59666314400002 Z"/></g></g><g><g><rect fill="white" stroke="none" x="146.57576230907938" y="264.93186644400004" width="68.9235962858789" height="19.602243960000003"/></g><text fill="black" stroke="none" font-family="sans-serif" font-size="11pt" font-style="normal" font-weight="normal" text-decoration="normal" x="148.83755968907937" y="278.5026507240001" text-anchor="start" dominant-baseline="alphabetic" xml:space="preserve">getValue</text></g><g><path fill="none" stroke="black" paint-order="fill stroke markers" d=" M 46.386641483544196 284.53411040400005 L 313.17537122049345 284.53411040400005" stroke-miterlimit="10" stroke-width="1.2565541" stroke-dasharray=""/><g transform="translate(315.6884794204934,284.53411040400005) translate(-315.6884794204934,-284.53411040400005)"><path fill="black" stroke="none" paint-order="stroke fill markers" d=" M 303.1229384204934 278.251339904 L 315.6884794204934 284.53411040400005 L 303.1229384204934 290.8168809040001 Z"/></g></g><g><g><rect fill="white" stroke="none" x="153.75909665966532" y="307.15208420400006" width="54.55692758470703" height="19.602243960000003"/></g><text fill="black" stroke="none" font-family="sans-serif" font-size="11pt" font-style="normal" font-weight="normal" text-decoration="normal" x="156.0208940396653" y="320.72286848400006" text-anchor="start" dominant-baseline="alphabetic" xml:space="preserve">double</text></g><g><path fill="none" stroke="black" paint-order="fill stroke markers" d=" M 315.6884794204934 326.75432816400007 L 48.899749683544194 326.75432816400007" stroke-miterlimit="10" stroke-width="1.2565541" stroke-dasharray="6.03145968"/><g transform="translate(46.386641483544196,326.75432816400007) translate(-46.386641483544196,-326.75432816400007)"><path fill="black" stroke="none" paint-order="stroke fill markers" d=" M 58.9521824835442 320.47155766400004 L 46.386641483544196 326.75432816400007 L 58.9521824835442 333.0370986640001 Z"/></g></g><g><g><rect fill="white" stroke="none" x="226.44625411578645" y="349.3723019640001" width="68.9235962858789" height="19.602243960000003"/></g><text fill="black" stroke="none" font-family="sans-serif" font-size="11pt" font-style="normal" font-weight="normal" text-decoration="normal" x="228.70805149578644" y="362.94308624400014" text-anchor="start" dominant-baseline="alphabetic" xml:space="preserve">getValue</text></g><g><path fill="none" stroke="black" paint-order="fill stroke markers" d=" M 46.386641483544196 368.9745459240001 L 472.9163548339075 368.9745459240001" stroke-miterlimit="10" stroke-width="1.2565541" stroke-dasharray=""/><g transform="translate(475.4294630339075,368.9745459240001) translate(-475.4294630339075,-368.9745459240001)"><path fill="black" stroke="none" paint-order="stroke fill markers" d=" M 462.8639220339075 362.69177542400007 L 475.4294630339075 368.9745459240001 L 462.8639220339075 375.2573164240001 Z"/></g></g><g><g><rect fill="white" stroke="none" x="233.62958846637238" y="391.5925197240001" width="54.55692758470703" height="19.602243960000003"/></g><text fill="black" stroke="none" font-family="sans-serif" font-size="11pt" font-style="normal" font-weight="normal" text-decoration="normal" x="235.89138584637237" y="405.1633040040001" text-anchor="start" dominant-baseline="alphabetic" xml:space="preserve">double</text></g><g><path fill="none" stroke="black" paint-order="fill stroke markers" d=" M 475.4294630339075 411.1947636840001 L 48.899749683544194 411.1947636840001" stroke-miterlimit="10" stroke-width="1.2565541" stroke-dasharray="6.03145968"/><g transform="translate(46.386641483544196,411.1947636840001) translate(-46.386641483544196,-411.1947636840001)"><path fill="black" stroke="none" paint-order="stroke fill markers" d=" M 58.9521824835442 404.9119931840001 L 46.386641483544196 411.1947636840001 L 58.9521824835442 417.47753418400015 Z"/></g></g><g><g><rect fill="white" stroke="none" x="308.1875802730794" y="433.81273748400014" width="68.9235962858789" height="19.602243960000003"/></g><text fill="black" stroke="none" font-family="sans-serif" font-size="11pt" font-style="normal" font-weight="normal" text-decoration="normal" x="310.4493776530794" y="447.3835217640002" text-anchor="start" dominant-baseline="alphabetic" xml:space="preserve">getValue</text></g><g><path fill="none" stroke="black" paint-order="fill stroke markers" d=" M 46.386641483544196 453.41498144400015 L 636.3990071484934 453.41498144400015" stroke-miterlimit="10" stroke-width="1.2565541" stroke-dasharray=""/><g transform="translate(638.9121153484934,453.41498144400015) translate(-638.9121153484934,-453.41498144400015)"><path fill="black" stroke="none" paint-order="stroke fill markers" d=" M 626.3465743484934 447.1322109440001 L 638.9121153484934 453.41498144400015 L 626.3465743484934 459.6977519440002 Z"/></g></g><g><g><rect fill="white" stroke="none" x="315.3709146236653" y="476.03295524400016" width="54.55692758470703" height="19.602243960000003"/></g><text fill="black" stroke="none" font-family="sans-serif" font-size="11pt" font-style="normal" font-weight="normal" text-decoration="normal" x="317.63271200366535" y="489.60373952400016" text-anchor="start" dominant-baseline="alphabetic" xml:space="preserve">double</text></g><g><path fill="none" stroke="black" paint-order="fill stroke markers" d=" M 638.9121153484934 495.6351992040002 L 48.899749683544194 495.6351992040002" stroke-miterlimit="10" stroke-width="1.2565541" stroke-dasharray="6.03145968"/><g transform="translate(46.386641483544196,495.6351992040002) translate(-46.386641483544196,-495.6351992040002)"><path fill="black" stroke="none" paint-order="stroke fill markers" d=" M 58.9521824835442 489.35242870400015 L 46.386641483544196 495.6351992040002 L 58.9521824835442 501.9179697040002 Z"/></g></g><g><g><rect fill="white" stroke="none" x="378.84557246125615" y="518.2531730040001" width="68.9235962858789" height="19.602243960000003"/></g><text fill="black" stroke="none" font-family="sans-serif" font-size="11pt" font-style="normal" font-weight="normal" text-decoration="normal" x="381.1073698412562" y="531.8239572840001" text-anchor="start" dominant-baseline="alphabetic" xml:space="preserve">getValue</text></g><g><path fill="none" stroke="black" paint-order="fill stroke markers" d=" M 46.386641483544196 537.8554169640001 L 777.7149915248469 537.8554169640001" stroke-miterlimit="10" stroke-width="1.2565541" stroke-dasharray=""/><g transform="translate(780.228099724847,537.8554169640001) translate(-780.228099724847,-537.8554169640001)"><path fill="black" stroke="none" paint-order="stroke fill markers" d=" M 767.6625587248469 531.5726464640002 L 780.228099724847 537.8554169640001 L 767.6625587248469 544.1381874640001 Z"/></g></g><g><g><rect fill="white" stroke="none" x="378.84557246125615" y="560.4733907640001" width="68.9235962858789" height="19.602243960000003"/></g><text fill="black" stroke="none" font-family="sans-serif" font-size="11pt" font-style="normal" font-weight="normal" text-decoration="normal" x="381.1073698412562" y="574.0441750440001" text-anchor="start" dominant-baseline="alphabetic" xml:space="preserve">getValue</text></g><g><path fill="none" stroke="black" paint-order="fill stroke markers" d=" M 780.228099724847 580.0756347240001 L 48.899749683544194 580.0756347240001" stroke-miterlimit="10" stroke-width="1.2565541" stroke-dasharray="6.03145968"/><g transform="translate(46.386641483544196,580.0756347240001) translate(-46.386641483544196,-580.0756347240001)"><path fill="black" stroke="none" paint-order="stroke fill markers" d=" M 58.9521824835442 573.7928642240001 L 46.386641483544196 580.0756347240001 L 58.9521824835442 586.3584052240001 Z"/></g></g><g><g><rect fill="white" stroke="none" x="433.5577333506048" y="602.6936085240001" width="104.15692605882812" height="19.602243960000003"/></g><text fill="black" stroke="none" font-family="sans-serif" font-size="11pt" font-style="normal" font-weight="normal" text-decoration="normal" x="435.8195307306048" y="616.2643928040001" text-anchor="start" dominant-baseline="alphabetic" xml:space="preserve">(int) getValue</text></g><g><path fill="none" stroke="black" paint-order="fill stroke markers" d=" M 46.386641483544196 622.2958524840001 L 922.3726430764934 622.2958524840001" stroke-miterlimit="10" stroke-width="1.2565541" stroke-dasharray=""/><g transform="translate(924.8857512764935,622.2958524840001) translate(-924.8857512764935,-622.2958524840001)"><path fill="black" stroke="none" paint-order="stroke fill markers" d=" M 912.3202102764934 616.0130819840001 L 924.8857512764935 622.2958524840001 L 912.3202102764934 628.578622984 Z"/></g></g><g><g><rect fill="white" stroke="none" x="473.8077323969305" y="644.913826284" width="23.65692796617676" height="19.602243960000003"/></g><text fill="black" stroke="none" font-family="sans-serif" font-size="11pt" font-style="normal" font-weight="normal" text-decoration="normal" x="476.0695297769305" y="658.484610564" text-anchor="start" dominant-baseline="alphabetic" xml:space="preserve">int</text></g><g><path fill="none" stroke="black" paint-order="fill stroke markers" d=" M 924.8857512764935 664.516070244 L 48.899749683544194 664.516070244" stroke-miterlimit="10" stroke-width="1.2565541" stroke-dasharray="6.03145968"/><g transform="translate(46.386641483544196,664.516070244) translate(-46.386641483544196,-664.516070244)"><path fill="black" stroke="none" paint-order="stroke fill markers" d=" M 58.9521824835442 658.2332997440001 L 46.386641483544196 664.516070244 L 58.9521824835442 670.798840744 Z"/></g></g><g><g><rect fill="white" stroke="none" x="64.2297097035442" y="687.134044044" width="126.12359323412109" height="19.602243960000003"/></g><text fill="black" stroke="none" font-family="sans-serif" font-size="11pt" font-style="normal" font-weight="normal" text-decoration="normal" x="66.4915070835442" y="700.704828324" text-anchor="start" dominant-baseline="alphabetic" xml:space="preserve">OptionCollection</text></g><g><path fill="none" stroke="black" paint-order="fill stroke markers" d=" M 46.386641483544196 706.736288004 L 106.7012382835442 706.736288004 L 106.7012382835442 726.338531964 L 41.36042508354419 726.338531964" stroke-miterlimit="10" stroke-width="1.2565541" stroke-dasharray="6.03145968"/><g transform="translate(38.847316883544195,726.338531964) translate(-38.847316883544195,-726.338531964)"><path fill="black" stroke="none" paint-order="stroke fill markers" d=" M 51.4128578835442 720.055761464 L 38.847316883544195 726.338531964 L 51.4128578835442 732.621302464 Z"/></g></g><g><g><rect fill="white" stroke="none" x="456.3009403400188" y="748.956505764" width="234.24025430589845" height="19.602243960000003"/></g><text fill="black" stroke="none" font-family="sans-serif" font-size="11pt" font-style="normal" font-weight="normal" text-decoration="normal" x="458.56273772001884" y="762.527290044" text-anchor="start" dominant-baseline="alphabetic" xml:space="preserve">new MapTask(512, readState())</text></g><g><path fill="none" stroke="black" paint-order="fill stroke markers" d=" M 38.847316883544195 768.558749724 L 1105.481709902392 768.558749724" stroke-miterlimit="10" stroke-width="1.2565541" stroke-dasharray=""/><g transform="translate(1107.994818102392,768.558749724) translate(-1107.994818102392,-768.558749724)"><path fill="black" stroke="none" paint-order="stroke fill markers" d=" M 1095.429277102392 762.275979224 L 1107.994818102392 768.558749724 L 1095.429277102392 774.841520224 Z"/></g></g><g><g><rect fill="white" stroke="none" x="707.5510305647259" y="791.176723524" width="330.17358865648436" height="19.602243960000003"/></g><text fill="black" stroke="none" font-family="sans-serif" font-size="11pt" font-style="normal" font-weight="normal" text-decoration="normal" x="709.8128279447259" y="804.747507804" text-anchor="start" dominant-baseline="alphabetic" xml:space="preserve">textProperty().bind(task.messageProperty())</text></g><g><path fill="none" stroke="black" paint-order="fill stroke markers" d=" M 38.847316883544195 810.778967484 L 1703.915224702392 810.778967484" stroke-miterlimit="10" stroke-width="1.2565541" stroke-dasharray=""/><g transform="translate(1706.428332902392,810.778967484) translate(-1706.428332902392,-810.778967484)"><path fill="black" stroke="none" paint-order="stroke fill markers" d=" M 1693.862791902392 804.496196984 L 1706.428332902392 810.778967484 L 1693.862791902392 817.0617379839999 Z"/></g></g><g><g><rect fill="white" stroke="none" x="463.76759988591726" y="833.3969412839999" width="219.30693521410157" height="19.602243960000003"/></g><text fill="black" stroke="none" font-family="sans-serif" font-size="11pt" font-style="normal" font-weight="normal" text-decoration="normal" x="466.0293972659173" y="846.9677255639999" text-anchor="start" dominant-baseline="alphabetic" xml:space="preserve">setOnSucceeded(&lt;lambda&gt;)</text></g><g><path fill="none" stroke="black" paint-order="fill stroke markers" d=" M 38.847316883544195 852.9991852439999 L 1105.481709902392 852.9991852439999" stroke-miterlimit="10" stroke-width="1.2565541" stroke-dasharray=""/><g transform="translate(1107.994818102392,852.9991852439999) translate(-1107.994818102392,-852.9991852439999)"><path fill="black" stroke="none" paint-order="stroke fill markers" d=" M 1095.429277102392 846.716414744 L 1107.994818102392 852.9991852439999 L 1095.429277102392 859.2819557439999 Z"/></g></g><g><g><rect fill="white" stroke="none" x="802.8923542424657" y="875.6171590439999" width="269.29025735765623" height="19.602243960000003"/></g><text fill="black" stroke="none" font-family="sans-serif" font-size="11pt" font-style="normal" font-weight="normal" text-decoration="normal" x="805.1541516224656" y="889.1879433239999" text-anchor="start" dominant-baseline="alphabetic" xml:space="preserve">= Executors.newFixedThreadPool(1)</text></g><g><path fill="none" stroke="black" paint-order="fill stroke markers" d=" M 38.847316883544195 895.2194030039999 L 1833.7145407590433 895.2194030039999" stroke-miterlimit="10" stroke-width="1.2565541" stroke-dasharray=""/><g transform="translate(1836.2276489590433,895.2194030039999) translate(-1836.2276489590433,-895.2194030039999)"><path fill="black" stroke="none" paint-order="stroke fill markers" d=" M 1823.6621079590434 888.9366325039999 L 1836.2276489590433 895.2194030039999 L 1823.6621079590434 901.5021735039999 Z"/></g></g><g><g><rect fill="white" stroke="none" x="885.0256855412938" y="917.8373768039999" width="105.02359476" height="19.602243960000003"/></g><text fill="black" stroke="none" font-family="sans-serif" font-size="11pt" font-style="normal" font-weight="normal" text-decoration="normal" x="887.2874829212938" y="931.4081610839999" text-anchor="start" dominant-baseline="alphabetic" xml:space="preserve">execute(task)</text></g><g><path fill="none" stroke="black" paint-order="fill stroke markers" d=" M 38.847316883544195 937.4396207639999 L 1833.7145407590433 937.4396207639999" stroke-miterlimit="10" stroke-width="1.2565541" stroke-dasharray=""/><g transform="translate(1836.2276489590433,937.4396207639999) translate(-1836.2276489590433,-937.4396207639999)"><path fill="black" stroke="none" paint-order="stroke fill markers" d=" M 1823.6621079590434 931.1568502639999 L 1836.2276489590433 937.4396207639999 L 1823.6621079590434 943.7223912639998 Z"/></g></g><g><g><rect fill="white" stroke="none" x="899.4756863042332" y="960.0575945639998" width="76.12359323412109" height="19.602243960000003"/></g><text fill="black" stroke="none" font-family="sans-serif" font-size="11pt" font-style="normal" font-weight="normal" text-decoration="normal" x="901.7374836842332" y="973.6283788439998" text-anchor="start" dominant-baseline="alphabetic" xml:space="preserve">shutdown</text></g><g><path fill="none" stroke="black" paint-order="fill stroke markers" d=" M 38.847316883544195 979.6598385239998 L 1833.7145407590433 979.6598385239998" stroke-miterlimit="10" stroke-width="1.2565541" stroke-dasharray=""/><g transform="translate(1836.2276489590433,979.6598385239998) translate(-1836.2276489590433,-979.6598385239998)"><path fill="black" stroke="none" paint-order="stroke fill markers" d=" M 1823.6621079590434 973.3770680239999 L 1836.2276489590433 979.6598385239998 L 1823.6621079590434 985.9426090239998 Z"/></g></g><path fill="none" stroke="black" paint-order="fill stroke markers" d=" M 7.5393246000000005 1014.5920425039999 L 2305.4606754 1014.5920425039999 M 7.5393246000000005 1019.6182589039998 L 2305.4606754 1019.6182589039998 M 7.5393246000000005 1024.6444753039998 L 2305.4606754 1024.6444753039998" stroke-miterlimit="10" stroke-width="1.2565541" stroke-dasharray=""/><path fill="white" stroke="black" paint-order="fill stroke markers" d=" M 642.9815659246875 1002.2778123239999 L 1670.0184340753126 1002.2778123239999 L 1670.0184340753126 1036.958705484 L 642.9815659246875 1036.958705484 Z" stroke-miterlimit="10" stroke-width="1.2565541" stroke-dasharray=""/><g><text fill="black" stroke="none" font-family="sans-serif" font-size="11pt" font-style="normal" font-weight="normal" text-decoration="normal" x="664.0916748046875" y="1023.3879212039999" text-anchor="start" dominant-baseline="alphabetic" xml:space="preserve">Aikaa kuluu määrittelemätön määrä, toisessa säikeessä (Executorin speksi: Executes the given command at some time in the future.)</text></g><g><g><rect fill="white" stroke="none" x="1457.241102563071" y="1059.576679284" width="29.74026193529297" height="19.602243960000003"/></g><text fill="black" stroke="none" font-family="sans-serif" font-size="11pt" font-style="normal" font-weight="normal" text-decoration="normal" x="1459.502899943071" y="1073.147463564" text-anchor="start" dominant-baseline="alphabetic" xml:space="preserve">call</text></g><g><path fill="none" stroke="black" paint-order="fill stroke markers" d=" M 1828.6883243590432 1079.1789232439999 L 1118.047250902392 1079.1789232439999" stroke-miterlimit="10" stroke-width="1.2565541" stroke-dasharray=""/><g transform="translate(1115.534142702392,1079.1789232439999) translate(-1115.534142702392,-1079.1789232439999)"><path fill="black" stroke="none" paint-order="stroke fill markers" d=" M 1128.099683702392 1072.896152744 L 1115.534142702392 1079.1789232439999 L 1128.099683702392 1085.4616937439998 Z"/></g></g><g><g><rect fill="white" stroke="none" x="1366.5080347636056" y="1101.796897044" width="358.45691385179686" height="19.602243960000003"/></g><text fill="black" stroke="none" font-family="sans-serif" font-size="11pt" font-style="normal" font-weight="normal" text-decoration="normal" x="1368.7698321436055" y="1115.367681324" text-anchor="start" dominant-baseline="alphabetic" xml:space="preserve">new Map(width, width, options.seed.hashCode()</text></g><g><path fill="none" stroke="black" paint-order="fill stroke markers" d=" M 1115.534142702392 1121.3991410039998 L 1973.425732476616 1121.3991410039998" stroke-miterlimit="10" stroke-width="1.2565541" stroke-dasharray=""/><g transform="translate(1975.938840676616,1121.3991410039998) translate(-1975.938840676616,-1121.3991410039998)"><path fill="black" stroke="none" paint-order="stroke fill markers" d=" M 1963.3732996766162 1115.1163705039999 L 1975.938840676616 1121.3991410039998 L 1963.3732996766162 1127.6819115039998 Z"/></g></g><g><g><rect fill="white" stroke="none" x="1133.3772109223921" y="1144.017114804" width="99.84026040941406" height="19.602243960000003"/></g><text fill="black" stroke="none" font-family="sans-serif" font-size="11pt" font-style="normal" font-weight="normal" text-decoration="normal" x="1135.639008302392" y="1157.587899084" text-anchor="start" dominant-baseline="alphabetic" xml:space="preserve">isCancelled()</text></g><g><path fill="none" stroke="black" paint-order="fill stroke markers" d=" M 1115.534142702392 1163.619358764 L 1175.8487395023922 1163.619358764 L 1175.8487395023922 1183.221602724 L 1118.047250902392 1183.221602724" stroke-miterlimit="10" stroke-width="1.2565541" stroke-dasharray=""/><g transform="translate(1115.534142702392,1183.221602724) translate(-1115.534142702392,-1183.221602724)"><path fill="black" stroke="none" paint-order="stroke fill markers" d=" M 1128.099683702392 1176.938832224 L 1115.534142702392 1183.221602724 L 1128.099683702392 1189.504373224 Z"/></g></g><g><g><rect fill="white" stroke="none" x="1133.3772109223921" y="1205.839576524" width="39.440262698232424" height="19.602243960000003"/></g><text fill="black" stroke="none" font-family="sans-serif" font-size="11pt" font-style="normal" font-weight="normal" text-decoration="normal" x="1135.639008302392" y="1219.410360804" text-anchor="start" dominant-baseline="alphabetic" xml:space="preserve">false</text></g><g><path fill="none" stroke="black" paint-order="fill stroke markers" d=" M 1115.534142702392 1225.4418204840001 L 1175.8487395023922 1225.4418204840001 L 1175.8487395023922 1245.044064444 L 1118.047250902392 1245.044064444" stroke-miterlimit="10" stroke-width="1.2565541" stroke-dasharray="6.03145968"/><g transform="translate(1115.534142702392,1245.044064444) translate(-1115.534142702392,-1245.044064444)"><path fill="black" stroke="none" paint-order="stroke fill markers" d=" M 1128.099683702392 1238.761293944 L 1115.534142702392 1245.044064444 L 1128.099683702392 1251.326834944 Z"/></g></g><g><g><rect fill="white" stroke="none" x="1133.3772109223921" y="1267.662038244" width="310.00693216234373" height="19.602243960000003"/></g><text fill="black" stroke="none" font-family="sans-serif" font-size="11pt" font-style="normal" font-weight="normal" text-decoration="normal" x="1135.639008302392" y="1281.232822524" text-anchor="start" dominant-baseline="alphabetic" xml:space="preserve">updateMessage("Generating mountains")</text></g><g><path fill="none" stroke="black" paint-order="fill stroke markers" d=" M 1115.534142702392 1287.2642822040002 L 1175.8487395023922 1287.2642822040002 L 1175.8487395023922 1306.866526164 L 1118.047250902392 1306.866526164" stroke-miterlimit="10" stroke-width="1.2565541" stroke-dasharray=""/><g transform="translate(1115.534142702392,1306.866526164) translate(-1115.534142702392,-1306.866526164)"><path fill="black" stroke="none" paint-order="stroke fill markers" d=" M 1128.099683702392 1300.5837556640001 L 1115.534142702392 1306.866526164 L 1128.099683702392 1313.149296664 Z"/></g></g><g><g><rect fill="white" stroke="none" x="1394.416359958918" y="1329.4844999640002" width="302.64026346117186" height="19.602243960000003"/></g><text fill="black" stroke="none" font-family="sans-serif" font-size="11pt" font-style="normal" font-weight="normal" text-decoration="normal" x="1396.678157338918" y="1343.0552842440002" text-anchor="start" dominant-baseline="alphabetic" xml:space="preserve">makePerlin(options.mountainScale, 1, 0)</text></g><g><path fill="none" stroke="black" paint-order="fill stroke markers" d=" M 1115.534142702392 1349.086743924 L 1973.425732476616 1349.086743924" stroke-miterlimit="10" stroke-width="1.2565541" stroke-dasharray=""/><g transform="translate(1975.938840676616,1349.086743924) translate(-1975.938840676616,-1349.086743924)"><path fill="black" stroke="none" paint-order="stroke fill markers" d=" M 1963.3732996766162 1342.803973424 L 1975.938840676616 1349.086743924 L 1963.3732996766162 1355.369514424 Z"/></g></g><g><g><rect fill="white" stroke="none" x="1408.0913630106759" y="1371.7047177240001" width="275.29025735765623" height="19.602243960000003"/></g><text fill="black" stroke="none" font-family="sans-serif" font-size="11pt" font-style="normal" font-weight="normal" text-decoration="normal" x="1410.3531603906758" y="1385.2755020040001" text-anchor="start" dominant-baseline="alphabetic" xml:space="preserve">waterCutoff(options.mountainCutoff)</text></g><g><path fill="none" stroke="black" paint-order="fill stroke markers" d=" M 1115.534142702392 1391.306961684 L 1973.425732476616 1391.306961684" stroke-miterlimit="10" stroke-width="1.2565541" stroke-dasharray=""/><g transform="translate(1975.938840676616,1391.306961684) translate(-1975.938840676616,-1391.306961684)"><path fill="black" stroke="none" paint-order="stroke fill markers" d=" M 1963.3732996766162 1385.024191184 L 1975.938840676616 1391.306961684 L 1963.3732996766162 1397.589732184 Z"/></g></g><g><g><rect fill="white" stroke="none" x="1133.3772109223921" y="1413.9249354840001" width="99.84026040941406" height="19.602243960000003"/></g><text fill="black" stroke="none" font-family="sans-serif" font-size="11pt" font-style="normal" font-weight="normal" text-decoration="normal" x="1135.639008302392" y="1427.4957197640001" text-anchor="start" dominant-baseline="alphabetic" xml:space="preserve">isCancelled()</text></g><g><path fill="none" stroke="black" paint-order="fill stroke markers" d=" M 1115.534142702392 1433.5271794440002 L 1175.8487395023922 1433.5271794440002 L 1175.8487395023922 1453.1294234040001 L 1118.047250902392 1453.1294234040001" stroke-miterlimit="10" stroke-width="1.2565541" stroke-dasharray=""/><g transform="translate(1115.534142702392,1453.1294234040001) translate(-1115.534142702392,-1453.1294234040001)"><path fill="black" stroke="none" paint-order="stroke fill markers" d=" M 1128.099683702392 1446.8466529040002 L 1115.534142702392 1453.1294234040001 L 1128.099683702392 1459.412193904 Z"/></g></g><g><g><rect fill="white" stroke="none" x="1133.3772109223921" y="1475.7473972040002" width="39.440262698232424" height="19.602243960000003"/></g><text fill="black" stroke="none" font-family="sans-serif" font-size="11pt" font-style="normal" font-weight="normal" text-decoration="normal" x="1135.639008302392" y="1489.3181814840002" text-anchor="start" dominant-baseline="alphabetic" xml:space="preserve">false</text></g><g><path fill="none" stroke="black" paint-order="fill stroke markers" d=" M 1115.534142702392 1495.3496411640003 L 1175.8487395023922 1495.3496411640003 L 1175.8487395023922 1514.9518851240002 L 1118.047250902392 1514.9518851240002" stroke-miterlimit="10" stroke-width="1.2565541" stroke-dasharray="6.03145968"/><g transform="translate(1115.534142702392,1514.9518851240002) translate(-1115.534142702392,-1514.9518851240002)"><path fill="black" stroke="none" paint-order="stroke fill markers" d=" M 1128.099683702392 1508.6691146240003 L 1115.534142702392 1514.9518851240002 L 1128.099683702392 1521.2346556240002 Z"/></g></g><g><g><rect fill="white" stroke="none" x="1133.3772109223921" y="1537.5698589240003" width="334.8402756682031" height="19.602243960000003"/></g><text fill="black" stroke="none" font-family="sans-serif" font-size="11pt" font-style="normal" font-weight="normal" text-decoration="normal" x="1135.639008302392" y="1551.1406432040003" text-anchor="start" dominant-baseline="alphabetic" xml:space="preserve">updateMessage("Generating large features")</text></g><g><path fill="none" stroke="black" paint-order="fill stroke markers" d=" M 1115.534142702392 1557.1721028840004 L 1175.8487395023922 1557.1721028840004 L 1175.8487395023922 1576.7743468440003 L 1118.047250902392 1576.7743468440003" stroke-miterlimit="10" stroke-width="1.2565541" stroke-dasharray=""/><g transform="translate(1115.534142702392,1576.7743468440003) translate(-1115.534142702392,-1576.7743468440003)"><path fill="black" stroke="none" paint-order="stroke fill markers" d=" M 1128.099683702392 1570.4915763440004 L 1115.534142702392 1576.7743468440003 L 1128.099683702392 1583.0571173440003 Z"/></g></g><g><g><rect fill="white" stroke="none" x="1376.099694309504" y="1599.3923206440004" width="339.27359476" height="19.602243960000003"/></g><text fill="black" stroke="none" font-family="sans-serif" font-size="11pt" font-style="normal" font-weight="normal" text-decoration="normal" x="1378.361491689504" y="1612.9631049240004" text-anchor="start" dominant-baseline="alphabetic" xml:space="preserve">makePerlin(options.largeFeatureScale, 0.6, 0)</text></g><g><path fill="none" stroke="black" paint-order="fill stroke markers" d=" M 1115.534142702392 1618.9945646040003 L 1973.425732476616 1618.9945646040003" stroke-miterlimit="10" stroke-width="1.2565541" stroke-dasharray=""/><g transform="translate(1975.938840676616,1618.9945646040003) translate(-1975.938840676616,-1618.9945646040003)"><path fill="black" stroke="none" paint-order="stroke fill markers" d=" M 1963.3732996766162 1612.7117941040003 L 1975.938840676616 1618.9945646040003 L 1963.3732996766162 1625.2773351040003 Z"/></g></g><g><g><rect fill="white" stroke="none" x="1430.258027134211" y="1641.6125384040004" width="230.95692911058595" height="19.602243960000003"/></g><text fill="black" stroke="none" font-family="sans-serif" font-size="11pt" font-style="normal" font-weight="normal" text-decoration="normal" x="1432.519824514211" y="1655.1833226840004" text-anchor="start" dominant-baseline="alphabetic" xml:space="preserve">waterCutoff(options.seaCutoff)</text></g><g><path fill="none" stroke="black" paint-order="fill stroke markers" d=" M 1115.534142702392 1661.2147823640003 L 1973.425732476616 1661.2147823640003" stroke-miterlimit="10" stroke-width="1.2565541" stroke-dasharray=""/><g transform="translate(1975.938840676616,1661.2147823640003) translate(-1975.938840676616,-1661.2147823640003)"><path fill="black" stroke="none" paint-order="stroke fill markers" d=" M 1963.3732996766162 1654.9320118640003 L 1975.938840676616 1661.2147823640003 L 1963.3732996766162 1667.4975528640002 Z"/></g></g><g><g><rect fill="white" stroke="none" x="1454.366102563071" y="1683.8327561640003" width="35.49026193529297" height="19.602243960000003"/></g><text fill="black" stroke="none" font-family="sans-serif" font-size="11pt" font-style="normal" font-weight="normal" text-decoration="normal" x="1456.627899943071" y="1697.4035404440003" text-anchor="start" dominant-baseline="alphabetic" xml:space="preserve">Map</text></g><g><path fill="none" stroke="black" paint-order="fill stroke markers" d=" M 1115.534142702392 1703.4350001240002 L 1826.1752161590432 1703.4350001240002" stroke-miterlimit="10" stroke-width="1.2565541" stroke-dasharray="6.03145968"/><g transform="translate(1828.6883243590432,1703.4350001240002) translate(-1828.6883243590432,-1703.4350001240002)"><path fill="black" stroke="none" paint-order="stroke fill markers" d=" M 1816.1227833590433 1697.1522296240003 L 1828.6883243590432 1703.4350001240002 L 1816.1227833590433 1709.7177706240002 Z"/></g></g><path fill="white" stroke="black" paint-order="fill stroke markers" d=" M 963.1597107482709 1726.052973924 L 1252.8299254565131 1726.052973924 L 1252.8299254565131 1775.8125162840001 L 963.1597107482709 1775.8125162840001 L 963.1597107482709 1726.052973924" stroke-miterlimit="10" stroke-width="1.2565541" stroke-dasharray=""/><g><text fill="black" stroke="none" font-family="sans-serif" font-size="11pt" font-style="normal" font-weight="normal" text-decoration="normal" x="984.2698196282709" y="1747.1630828040002" text-anchor="start" dominant-baseline="alphabetic" xml:space="preserve">Tästä alkaa silmukka, joka toistuu</text><text fill="black" stroke="none" font-family="sans-serif" font-size="11pt" font-style="normal" font-weight="normal" text-decoration="normal" x="984.2698196282709" y="1762.2417320040001" text-anchor="start" dominant-baseline="alphabetic" xml:space="preserve">options.erosionIterations kertaa</text></g><g><g><rect fill="white" stroke="none" x="1133.3772109223921" y="1798.4304900840002" width="99.84026040941406" height="19.602243960000003"/></g><text fill="black" stroke="none" font-family="sans-serif" font-size="11pt" font-style="normal" font-weight="normal" text-decoration="normal" x="1135.639008302392" y="1812.0012743640002" text-anchor="start" dominant-baseline="alphabetic" xml:space="preserve">isCancelled()</text></g><g><path fill="none" stroke="black" paint-order="fill stroke markers" d=" M 1115.534142702392 1818.0327340440003 L 1175.8487395023922 1818.0327340440003 L 1175.8487395023922 1837.6349780040002 L 1118.047250902392 1837.6349780040002" stroke-miterlimit="10" stroke-width="1.2565541" stroke-dasharray=""/><g transform="translate(1115.534142702392,1837.6349780040002) translate(-1115.534142702392,-1837.6349780040002)"><path fill="black" stroke="none" paint-order="stroke fill markers" d=" M 1128.099683702392 1831.3522075040003 L 1115.534142702392 1837.6349780040002 L 1128.099683702392 1843.9177485040002 Z"/></g></g><g><g><rect fill="white" stroke="none" x="1133.3772109223921" y="1860.2529518040003" width="39.440262698232424" height="19.602243960000003"/></g><text fill="black" stroke="none" font-family="sans-serif" font-size="11pt" font-style="normal" font-weight="normal" text-decoration="normal" x="1135.639008302392" y="1873.8237360840003" text-anchor="start" dominant-baseline="alphabetic" xml:space="preserve">false</text></g><g><path fill="none" stroke="black" paint-order="fill stroke markers" d=" M 1115.534142702392 1879.8551957640004 L 1175.8487395023922 1879.8551957640004 L 1175.8487395023922 1899.4574397240003 L 1118.047250902392 1899.4574397240003" stroke-miterlimit="10" stroke-width="1.2565541" stroke-dasharray="6.03145968"/><g transform="translate(1115.534142702392,1899.4574397240003) translate(-1115.534142702392,-1899.4574397240003)"><path fill="black" stroke="none" paint-order="stroke fill markers" d=" M 1128.099683702392 1893.1746692240004 L 1115.534142702392 1899.4574397240003 L 1128.099683702392 1905.7402102240003 Z"/></g></g><g><g><rect fill="white" stroke="none" x="1133.3772109223921" y="1922.0754135240004" width="567.77359476" height="19.602243960000003"/></g><text fill="black" stroke="none" font-family="sans-serif" font-size="11pt" font-style="normal" font-weight="normal" text-decoration="normal" x="1135.639008302392" y="1935.6461978040004" text-anchor="start" dominant-baseline="alphabetic" xml:space="preserve">updateMessage("Calculating erosion, iteration &lt;iteraatio&gt; / &lt;iteraatioita&gt;")</text></g><g><path fill="none" stroke="black" paint-order="fill stroke markers" d=" M 1115.534142702392 1941.6776574840005 L 1175.8487395023922 1941.6776574840005 L 1175.8487395023922 1961.2799014440004 L 1118.047250902392 1961.2799014440004" stroke-miterlimit="10" stroke-width="1.2565541" stroke-dasharray=""/><g transform="translate(1115.534142702392,1961.2799014440004) translate(-1115.534142702392,-1961.2799014440004)"><path fill="black" stroke="none" paint-order="stroke fill markers" d=" M 1128.099683702392 1954.9971309440004 L 1115.534142702392 1961.2799014440004 L 1128.099683702392 1967.5626719440004 Z"/></g></g><g><g><rect fill="white" stroke="none" x="1454.949692783625" y="1983.8978752440005" width="181.57359781175782" height="19.602243960000003"/></g><text fill="black" stroke="none" font-family="sans-serif" font-size="11pt" font-style="normal" font-weight="normal" text-decoration="normal" x="1457.211490163625" y="1997.4686595240005" text-anchor="start" dominant-baseline="alphabetic" xml:space="preserve">doErosion(100000, 500)</text></g><g><path fill="none" stroke="black" paint-order="fill stroke markers" d=" M 1115.534142702392 2003.5001192040004 L 1973.425732476616 2003.5001192040004" stroke-miterlimit="10" stroke-width="1.2565541" stroke-dasharray=""/><g transform="translate(1975.938840676616,2003.5001192040004) translate(-1975.938840676616,-2003.5001192040004)"><path fill="black" stroke="none" paint-order="stroke fill markers" d=" M 1963.3732996766162 1997.2173487040004 L 1975.938840676616 2003.5001192040004 L 1963.3732996766162 2009.7828897040004 Z"/></g></g><path fill="white" stroke="black" paint-order="fill stroke markers" d=" M 955.0430496764935 2026.1180930040005 L 1260.9465865282905 2026.1180930040005 L 1260.9465865282905 2075.8776353640005 L 955.0430496764935 2075.8776353640005 L 955.0430496764935 2026.1180930040005" stroke-miterlimit="10" stroke-width="1.2565541" stroke-dasharray=""/><g><text fill="black" stroke="none" font-family="sans-serif" font-size="11pt" font-style="normal" font-weight="normal" text-decoration="normal" x="976.1531585564935" y="2047.2282018840008" text-anchor="start" dominant-baseline="alphabetic" xml:space="preserve">Tähän loppuu silmukka, joka toistuu</text><text fill="black" stroke="none" font-family="sans-serif" font-size="11pt" font-style="normal" font-weight="normal" text-decoration="normal" x="976.1531585564935" y="2062.3068510840008" text-anchor="start" dominant-baseline="alphabetic" xml:space="preserve">options.erosionIterations kertaa</text></g><g><g><rect fill="white" stroke="none" x="1454.366102563071" y="2098.4956091640006" width="35.49026193529297" height="19.602243960000003"/></g><text fill="black" stroke="none" font-family="sans-serif" font-size="11pt" font-style="normal" font-weight="normal" text-decoration="normal" x="1456.627899943071" y="2112.066393444001" text-anchor="start" dominant-baseline="alphabetic" xml:space="preserve">Map</text></g><g><path fill="none" stroke="black" paint-order="fill stroke markers" d=" M 1115.534142702392 2118.0978531240007 L 1826.1752161590432 2118.0978531240007" stroke-miterlimit="10" stroke-width="1.2565541" stroke-dasharray="6.03145968"/><g transform="translate(1828.6883243590432,2118.0978531240007) translate(-1828.6883243590432,-2118.0978531240007)"><path fill="black" stroke="none" paint-order="stroke fill markers" d=" M 1816.1227833590433 2111.8150826240008 L 1828.6883243590432 2118.0978531240007 L 1816.1227833590433 2124.3806236240007 Z"/></g></g><path fill="none" stroke="black" paint-order="fill stroke markers" d=" M 7.5393246000000005 2153.0300571040007 L 2305.4606754 2153.0300571040007 M 7.5393246000000005 2158.0562735040007 L 2305.4606754 2158.0562735040007 M 7.5393246000000005 2163.082489904001 L 2305.4606754 2163.082489904001" stroke-miterlimit="10" stroke-width="1.2565541" stroke-dasharray=""/><path fill="white" stroke="black" paint-order="fill stroke markers" d=" M 888.5982193670703 2140.715826924001 L 1424.4017806329298 2140.715826924001 L 1424.4017806329298 2175.3967200840007 L 888.5982193670703 2175.3967200840007 Z" stroke-miterlimit="10" stroke-width="1.2565541" stroke-dasharray=""/><g><text fill="black" stroke="none" font-family="sans-serif" font-size="11pt" font-style="normal" font-weight="normal" text-decoration="normal" x="909.7083282470703" y="2161.825935804001" text-anchor="start" dominant-baseline="alphabetic" xml:space="preserve">Aikaa kuluu jälleen määrittelemätön määrä, käyttöliittymäsäikeellä</text></g><g><g><rect fill="white" stroke="none" x="535.1896070500286" y="2198.0146938840007" width="68.9235962858789" height="19.602243960000003"/></g><text fill="black" stroke="none" font-family="sans-serif" font-size="11pt" font-style="normal" font-weight="normal" text-decoration="normal" x="537.4514044300286" y="2211.585478164001" text-anchor="start" dominant-baseline="alphabetic" xml:space="preserve">getValue</text></g><g><path fill="none" stroke="black" paint-order="fill stroke markers" d=" M 38.847316883544195 2217.616937844001 L 1097.9423853023918 2217.616937844001" stroke-miterlimit="10" stroke-width="1.2565541" stroke-dasharray=""/><g transform="translate(1100.4554935023918,2217.616937844001) translate(-1100.4554935023918,-2217.616937844001)"><path fill="black" stroke="none" paint-order="stroke fill markers" d=" M 1087.889952502392 2211.334167344001 L 1100.4554935023918 2217.616937844001 L 1087.889952502392 2223.899708344001 Z"/></g></g><g><g><rect fill="white" stroke="none" x="551.9062742253216" y="2240.234911644001" width="35.49026193529297" height="19.602243960000003"/></g><text fill="black" stroke="none" font-family="sans-serif" font-size="11pt" font-style="normal" font-weight="normal" text-decoration="normal" x="554.1680716053215" y="2253.805695924001" text-anchor="start" dominant-baseline="alphabetic" xml:space="preserve">Map</text></g><g><path fill="none" stroke="black" paint-order="fill stroke markers" d=" M 1100.4554935023918 2259.837155604001 L 41.36042508354419 2259.837155604001" stroke-miterlimit="10" stroke-width="1.2565541" stroke-dasharray="6.03145968"/><g transform="translate(38.847316883544195,2259.837155604001) translate(-38.847316883544195,-2259.837155604001)"><path fill="black" stroke="none" paint-order="stroke fill markers" d=" M 51.4128578835442 2253.554385104001 L 38.847316883544195 2259.837155604001 L 51.4128578835442 2266.119926104001 Z"/></g></g><g><g><rect fill="white" stroke="none" x="983.2809403820802" y="2282.455129404001" width="127.80692758470703" height="19.602243960000003"/></g><text fill="black" stroke="none" font-family="sans-serif" font-size="11pt" font-style="normal" font-weight="normal" text-decoration="normal" x="985.5427377620802" y="2296.0259136840014" text-anchor="start" dominant-baseline="alphabetic" xml:space="preserve">toBufferedImage</text></g><g><path fill="none" stroke="black" paint-order="fill stroke markers" d=" M 38.847316883544195 2302.0573733640013 L 2053.008383265323 2302.0573733640013" stroke-miterlimit="10" stroke-width="1.2565541" stroke-dasharray=""/><g transform="translate(2055.521491465323,2302.0573733640013) translate(-2055.521491465323,-2302.0573733640013)"><path fill="black" stroke="none" paint-order="stroke fill markers" d=" M 2042.955950465323 2295.7746028640013 L 2055.521491465323 2302.0573733640013 L 2042.955950465323 2308.340143864001 Z"/></g></g><g><g><rect fill="white" stroke="none" x="990.6476052685548" y="2324.6753471640013" width="113.07359781175781" height="19.602243960000003"/></g><text fill="black" stroke="none" font-family="sans-serif" font-size="11pt" font-style="normal" font-weight="normal" text-decoration="normal" x="992.9094026485548" y="2338.2461314440015" text-anchor="start" dominant-baseline="alphabetic" xml:space="preserve">BufferedImage</text></g><g><path fill="none" stroke="black" paint-order="fill stroke markers" d=" M 2055.521491465323 2344.2775911240014 L 41.36042508354419 2344.2775911240014" stroke-miterlimit="10" stroke-width="1.2565541" stroke-dasharray="6.03145968"/><g transform="translate(38.847316883544195,2344.2775911240014) translate(-38.847316883544195,-2344.2775911240014)"><path fill="black" stroke="none" paint-order="stroke fill markers" d=" M 51.4128578835442 2337.9948206240015 L 38.847316883544195 2344.2775911240014 L 51.4128578835442 2350.5603616240014 Z"/></g></g><g><g><rect fill="white" stroke="none" x="956.0722581470388" y="2366.8955649240015" width="267.0902756682031" height="19.602243960000003"/></g><text fill="black" stroke="none" font-family="sans-serif" font-size="11pt" font-style="normal" font-weight="normal" text-decoration="normal" x="958.3340555270388" y="2380.4663492040017" text-anchor="start" dominant-baseline="alphabetic" xml:space="preserve">setImage(&lt;mapin tuottama kuva&gt;)</text></g><g><path fill="none" stroke="black" paint-order="fill stroke markers" d=" M 38.847316883544195 2386.4978088840016 L 2137.874366878737 2386.4978088840016" stroke-miterlimit="10" stroke-width="1.2565541" stroke-dasharray=""/><g transform="translate(2140.3874750787368,2386.4978088840016) translate(-2140.3874750787368,-2386.4978088840016)"><path fill="black" stroke="none" paint-order="stroke fill markers" d=" M 2127.821934078737 2380.2150383840017 L 2140.3874750787368 2386.4978088840016 L 2127.821934078737 2392.7805793840016 Z"/></g></g><g><g><rect fill="white" stroke="none" x="1080.259425139903" y="2409.1157826840017" width="127.75692453294921" height="19.602243960000003"/></g><text fill="black" stroke="none" font-family="sans-serif" font-size="11pt" font-style="normal" font-weight="normal" text-decoration="normal" x="1082.521222519903" y="2422.686566964002" text-anchor="start" dominant-baseline="alphabetic" xml:space="preserve">setDisable(false)</text></g><g><path fill="none" stroke="black" paint-order="fill stroke markers" d=" M 38.847316883544195 2428.718026644002 L 2246.9153497292114 2428.718026644002" stroke-miterlimit="10" stroke-width="1.2565541" stroke-dasharray=""/><g transform="translate(2249.428457929211,2428.718026644002) translate(-2249.428457929211,-2428.718026644002)"><path fill="black" stroke="none" paint-order="stroke fill markers" d=" M 2236.862916929211 2422.435256144002 L 2249.428457929211 2428.718026644002 L 2236.862916929211 2435.000797144002 Z"/></g></g></g><g/><g/><g/><g/><g/><g/><g/><g/><g/><g/><g/><g/><g/><g/></g></svg>